<?xml version="1.0" encoding="UTF-8"?>
<svg xmlns="http://www.w3.org/2000/svg" xmlns:xlink="http://www.w3.org/1999/xlink" width="576pt" height="216pt" viewBox="0 0 576 216" version="1.1">
<defs>
<clipPath id="clip1">
  <path d="M 0 0 L 289 0 L 289 217 L 0 217 Z M 0 0 "/>
</clipPath>
<clipPath id="clip2">
  <path d="M 8.964844 5.976563 L 283.019531 5.976563 L 283.019531 208.03125 L 8.964844 208.03125 Z M 8.964844 5.976563 "/>
</clipPath>
<clipPath id="clip3">
  <path d="M 288 0 L 577 0 L 577 217 L 288 217 Z M 288 0 "/>
</clipPath>
<clipPath id="clip4">
  <path d="M 296.964844 5.976563 L 571.019531 5.976563 L 571.019531 208.03125 L 296.964844 208.03125 Z M 296.964844 5.976563 "/>
</clipPath>
</defs>
<g id="surface141">
<rect x="0" y="0" width="576" height="216" style="fill:rgb(100%,100%,100%);fill-opacity:1;stroke:none;"/>
<g clip-path="url(#clip1)" clip-rule="nonzero">
<path style="fill-rule:nonzero;fill:rgb(100%,100%,100%);fill-opacity:1;stroke-width:1.066978;stroke-linecap:round;stroke-linejoin:round;stroke:rgb(100%,100%,100%);stroke-opacity:1;stroke-miterlimit:10;" d="M 0 216 L 288 216 L 288 0 L 0 0 Z M 0 216 "/>
</g>
<g clip-path="url(#clip2)" clip-rule="nonzero">
<path style=" stroke:none;fill-rule:nonzero;fill:rgb(100%,100%,100%);fill-opacity:1;" d="M 8.964844 207.035156 L 282.019531 207.035156 L 282.019531 5.980469 L 8.964844 5.980469 Z M 8.964844 207.035156 "/>
<path style="fill:none;stroke-width:1.066978;stroke-linecap:butt;stroke-linejoin:round;stroke:rgb(0%,0%,0%);stroke-opacity:0.6;stroke-dasharray:4.267913,4.267913;stroke-miterlimit:1;" d="M 21.378906 197.894531 L 23.859375 196.066406 L 26.34375 194.238281 L 28.824219 192.410156 L 31.308594 190.582031 L 33.789063 188.753906 L 36.273438 186.929688 L 38.753906 185.101563 L 41.238281 183.273438 L 43.71875 181.445313 L 46.203125 179.617188 L 51.164063 175.960938 L 53.648438 174.132813 L 56.128906 172.304688 L 58.613281 170.476563 L 61.09375 168.648438 L 63.578125 166.824219 L 66.058594 164.996094 L 68.542969 163.167969 L 71.023438 161.339844 L 73.507813 159.511719 L 75.988281 157.683594 L 78.472656 155.855469 L 80.953125 154.027344 L 83.4375 152.199219 L 85.917969 150.371094 L 88.402344 148.542969 L 90.882813 146.71875 L 93.367188 144.890625 L 95.847656 143.0625 L 98.332031 141.234375 L 103.292969 137.578125 L 105.777344 135.75 L 108.257813 133.921875 L 110.742188 132.09375 L 113.222656 130.265625 L 115.707031 128.4375 L 118.1875 126.609375 L 120.671875 124.785156 L 123.152344 122.957031 L 125.636719 121.128906 L 128.117188 119.300781 L 130.601563 117.472656 L 133.082031 115.644531 L 135.566406 113.816406 L 138.046875 111.988281 L 140.53125 110.160156 L 143.011719 108.332031 L 145.496094 106.503906 L 147.976563 104.679688 L 150.460938 102.851563 L 155.421875 99.195313 L 157.90625 97.367188 L 160.386719 95.539063 L 162.871094 93.710938 L 165.351563 91.882813 L 167.835938 90.054688 L 170.316406 88.226563 L 172.800781 86.398438 L 175.28125 84.570313 L 177.765625 82.746094 L 180.246094 80.917969 L 182.730469 79.089844 L 185.210938 77.261719 L 187.695313 75.433594 L 190.175781 73.605469 L 192.660156 71.777344 L 195.140625 69.949219 L 197.625 68.121094 L 200.105469 66.292969 L 202.589844 64.464844 L 205.070313 62.640625 L 207.550781 60.8125 L 210.035156 58.984375 L 212.515625 57.15625 L 215 55.328125 L 217.480469 53.5 L 219.964844 51.671875 L 222.445313 49.84375 L 224.929688 48.015625 L 227.410156 46.1875 L 229.894531 44.359375 L 232.375 42.535156 L 234.859375 40.707031 L 237.339844 38.878906 L 239.824219 37.050781 L 242.304688 35.222656 L 244.789063 33.394531 L 247.269531 31.566406 L 249.753906 29.738281 L 252.234375 27.910156 L 254.71875 26.082031 L 259.679688 22.425781 L 262.164063 20.601563 L 264.644531 18.773438 L 267.128906 16.945313 L 269.609375 15.117188 "/>
<path style="fill:none;stroke-width:1.066978;stroke-linecap:butt;stroke-linejoin:round;stroke:rgb(0%,0%,0%);stroke-opacity:0.6;stroke-miterlimit:1;" d="M 21.378906 197.863281 L 23.859375 196.160156 L 26.34375 194.421875 L 28.824219 192.65625 L 31.308594 190.863281 L 33.789063 189.039063 L 36.273438 187.191406 L 38.753906 185.316406 L 41.238281 183.417969 L 43.71875 181.5 L 46.203125 179.558594 L 48.683594 177.597656 L 51.164063 175.617188 L 53.648438 173.625 L 56.128906 171.613281 L 58.613281 169.59375 L 61.09375 167.5625 L 63.578125 165.519531 L 66.058594 163.472656 L 68.542969 161.421875 L 71.023438 159.367188 L 73.507813 157.308594 L 75.988281 155.253906 L 78.472656 153.203125 L 80.953125 151.15625 L 83.4375 149.117188 L 85.917969 147.085938 L 88.402344 145.0625 L 90.882813 143.058594 L 93.367188 141.0625 L 95.847656 139.085938 L 98.332031 137.128906 L 100.8125 135.1875 L 103.292969 133.269531 L 105.777344 131.375 L 108.257813 129.503906 L 110.742188 127.65625 L 113.222656 125.835938 L 115.707031 124.042969 L 118.1875 122.28125 L 120.671875 120.546875 L 123.152344 118.84375 L 125.636719 117.171875 L 128.117188 115.535156 L 130.601563 113.925781 L 133.082031 112.355469 L 135.566406 110.8125 L 138.046875 109.308594 L 140.53125 107.835938 L 143.011719 106.402344 L 145.496094 105 L 147.976563 103.632813 L 150.460938 102.300781 L 152.941406 101.003906 L 155.421875 99.742188 L 157.90625 98.511719 L 160.386719 97.316406 L 162.871094 96.15625 L 165.351563 95.03125 L 167.835938 93.9375 L 170.316406 92.875 L 172.800781 91.847656 L 175.28125 90.851563 L 177.765625 89.886719 L 180.246094 88.949219 L 182.730469 88.046875 L 185.210938 87.167969 L 187.695313 86.324219 L 190.175781 85.503906 L 192.660156 84.714844 L 195.140625 83.949219 L 197.625 83.210938 L 200.105469 82.5 L 202.589844 81.8125 L 205.070313 81.152344 L 207.550781 80.511719 L 210.035156 79.898438 L 212.515625 79.304688 L 215 78.730469 L 217.480469 78.179688 L 219.964844 77.652344 L 222.445313 77.140625 L 224.929688 76.648438 L 227.410156 76.175781 L 229.894531 75.722656 L 232.375 75.285156 L 234.859375 74.863281 L 237.339844 74.457031 L 239.824219 74.070313 L 242.304688 73.695313 L 244.789063 73.335938 L 247.269531 72.992188 L 249.753906 72.660156 L 252.234375 72.34375 L 254.71875 72.039063 L 257.199219 71.742188 L 259.679688 71.460938 L 262.164063 71.191406 L 264.644531 70.933594 L 267.128906 70.683594 L 269.609375 70.445313 "/>
<path style="fill:none;stroke-width:0.708661;stroke-linecap:round;stroke-linejoin:round;stroke:rgb(0%,0%,0%);stroke-opacity:1;stroke-miterlimit:10;" d="M 26 215.859375 C 26 222.023438 16.753906 222.023438 16.753906 215.859375 C 16.753906 209.695313 26 209.695313 26 215.859375 "/>
<path style="fill:none;stroke-width:0.708661;stroke-linecap:round;stroke-linejoin:round;stroke:rgb(0%,0%,0%);stroke-opacity:1;stroke-miterlimit:10;" d="M 31.640625 183.742188 C 31.640625 189.90625 22.398438 189.90625 22.398438 183.742188 C 22.398438 177.578125 31.640625 177.578125 31.640625 183.742188 "/>
<path style="fill:none;stroke-width:0.708661;stroke-linecap:round;stroke-linejoin:round;stroke:rgb(0%,0%,0%);stroke-opacity:1;stroke-miterlimit:10;" d="M 37.285156 168.851563 C 37.285156 175.011719 28.039063 175.011719 28.039063 168.851563 C 28.039063 162.6875 37.285156 162.6875 37.285156 168.851563 "/>
<path style="fill:none;stroke-width:0.708661;stroke-linecap:round;stroke-linejoin:round;stroke:rgb(0%,0%,0%);stroke-opacity:1;stroke-miterlimit:10;" d="M 42.925781 189.851563 C 42.925781 196.011719 33.679688 196.011719 33.679688 189.851563 C 33.679688 183.6875 42.925781 183.6875 42.925781 189.851563 "/>
<path style="fill:none;stroke-width:0.708661;stroke-linecap:round;stroke-linejoin:round;stroke:rgb(0%,0%,0%);stroke-opacity:1;stroke-miterlimit:10;" d="M 48.566406 171.121094 C 48.566406 177.285156 39.324219 177.285156 39.324219 171.121094 C 39.324219 164.960938 48.566406 164.960938 48.566406 171.121094 "/>
<path style="fill:none;stroke-width:0.708661;stroke-linecap:round;stroke-linejoin:round;stroke:rgb(0%,0%,0%);stroke-opacity:1;stroke-miterlimit:10;" d="M 54.207031 198.253906 C 54.207031 204.417969 44.964844 204.417969 44.964844 198.253906 C 44.964844 192.089844 54.207031 192.089844 54.207031 198.253906 "/>
<path style="fill:none;stroke-width:0.708661;stroke-linecap:round;stroke-linejoin:round;stroke:rgb(0%,0%,0%);stroke-opacity:1;stroke-miterlimit:10;" d="M 59.851563 157.15625 C 59.851563 163.320313 50.605469 163.320313 50.605469 157.15625 C 50.605469 150.992188 59.851563 150.992188 59.851563 157.15625 "/>
<path style="fill:none;stroke-width:0.708661;stroke-linecap:round;stroke-linejoin:round;stroke:rgb(0%,0%,0%);stroke-opacity:1;stroke-miterlimit:10;" d="M 65.492188 182.347656 C 65.492188 188.511719 56.246094 188.511719 56.246094 182.347656 C 56.246094 176.1875 65.492188 176.1875 65.492188 182.347656 "/>
<path style="fill:none;stroke-width:0.708661;stroke-linecap:round;stroke-linejoin:round;stroke:rgb(0%,0%,0%);stroke-opacity:1;stroke-miterlimit:10;" d="M 71.132813 159.171875 C 71.132813 165.335938 61.890625 165.335938 61.890625 159.171875 C 61.890625 153.007813 71.132813 153.007813 71.132813 159.171875 "/>
<path style="fill:none;stroke-width:0.708661;stroke-linecap:round;stroke-linejoin:round;stroke:rgb(0%,0%,0%);stroke-opacity:1;stroke-miterlimit:10;" d="M 76.773438 166.074219 C 76.773438 172.238281 67.53125 172.238281 67.53125 166.074219 C 67.53125 159.914063 76.773438 159.914063 76.773438 166.074219 "/>
<path style="fill:none;stroke-width:0.708661;stroke-linecap:round;stroke-linejoin:round;stroke:rgb(0%,0%,0%);stroke-opacity:1;stroke-miterlimit:10;" d="M 82.417969 153.945313 C 82.417969 160.109375 73.171875 160.109375 73.171875 153.945313 C 73.171875 147.78125 82.417969 147.78125 82.417969 153.945313 "/>
<path style="fill:none;stroke-width:0.708661;stroke-linecap:round;stroke-linejoin:round;stroke:rgb(0%,0%,0%);stroke-opacity:1;stroke-miterlimit:10;" d="M 88.058594 167.757813 C 88.058594 173.917969 78.8125 173.917969 78.8125 167.757813 C 78.8125 161.59375 88.058594 161.59375 88.058594 167.757813 "/>
<path style="fill:none;stroke-width:0.708661;stroke-linecap:round;stroke-linejoin:round;stroke:rgb(0%,0%,0%);stroke-opacity:1;stroke-miterlimit:10;" d="M 93.699219 169.972656 C 93.699219 176.132813 84.457031 176.132813 84.457031 169.972656 C 84.457031 163.808594 93.699219 163.808594 93.699219 169.972656 "/>
<path style="fill:none;stroke-width:0.708661;stroke-linecap:round;stroke-linejoin:round;stroke:rgb(0%,0%,0%);stroke-opacity:1;stroke-miterlimit:10;" d="M 99.339844 167.277344 C 99.339844 173.441406 90.097656 173.441406 90.097656 167.277344 C 90.097656 161.113281 99.339844 161.113281 99.339844 167.277344 "/>
<path style="fill:none;stroke-width:0.708661;stroke-linecap:round;stroke-linejoin:round;stroke:rgb(0%,0%,0%);stroke-opacity:1;stroke-miterlimit:10;" d="M 104.984375 115.335938 C 104.984375 121.5 95.738281 121.5 95.738281 115.335938 C 95.738281 109.171875 104.984375 109.171875 104.984375 115.335938 "/>
<path style="fill:none;stroke-width:0.708661;stroke-linecap:round;stroke-linejoin:round;stroke:rgb(0%,0%,0%);stroke-opacity:1;stroke-miterlimit:10;" d="M 110.625 130.476563 C 110.625 136.636719 101.378906 136.636719 101.378906 130.476563 C 101.378906 124.3125 110.625 124.3125 110.625 130.476563 "/>
<path style="fill:none;stroke-width:0.708661;stroke-linecap:round;stroke-linejoin:round;stroke:rgb(0%,0%,0%);stroke-opacity:1;stroke-miterlimit:10;" d="M 116.265625 107.21875 C 116.265625 113.382813 107.023438 113.382813 107.023438 107.21875 C 107.023438 101.058594 116.265625 101.058594 116.265625 107.21875 "/>
<path style="fill:none;stroke-width:0.708661;stroke-linecap:round;stroke-linejoin:round;stroke:rgb(0%,0%,0%);stroke-opacity:1;stroke-miterlimit:10;" d="M 121.910156 102.511719 C 121.910156 108.675781 112.664063 108.675781 112.664063 102.511719 C 112.664063 96.347656 121.910156 96.347656 121.910156 102.511719 "/>
<path style="fill:none;stroke-width:0.708661;stroke-linecap:round;stroke-linejoin:round;stroke:rgb(0%,0%,0%);stroke-opacity:1;stroke-miterlimit:10;" d="M 127.550781 119.417969 C 127.550781 125.578125 118.304688 125.578125 118.304688 119.417969 C 118.304688 113.253906 127.550781 113.253906 127.550781 119.417969 "/>
<path style="fill:none;stroke-width:0.708661;stroke-linecap:round;stroke-linejoin:round;stroke:rgb(0%,0%,0%);stroke-opacity:1;stroke-miterlimit:10;" d="M 133.191406 98.484375 C 133.191406 104.648438 123.945313 104.648438 123.945313 98.484375 C 123.945313 92.320313 133.191406 92.320313 133.191406 98.484375 "/>
<path style="fill:none;stroke-width:0.708661;stroke-linecap:round;stroke-linejoin:round;stroke:rgb(0%,0%,0%);stroke-opacity:1;stroke-miterlimit:10;" d="M 138.832031 126.019531 C 138.832031 132.183594 129.589844 132.183594 129.589844 126.019531 C 129.589844 119.855469 138.832031 119.855469 138.832031 126.019531 "/>
<path style="fill:none;stroke-width:0.708661;stroke-linecap:round;stroke-linejoin:round;stroke:rgb(0%,0%,0%);stroke-opacity:1;stroke-miterlimit:10;" d="M 144.476563 124.035156 C 144.476563 130.199219 135.230469 130.199219 135.230469 124.035156 C 135.230469 117.875 144.476563 117.875 144.476563 124.035156 "/>
<path style="fill:none;stroke-width:0.708661;stroke-linecap:round;stroke-linejoin:round;stroke:rgb(0%,0%,0%);stroke-opacity:1;stroke-miterlimit:10;" d="M 150.117188 120.085938 C 150.117188 126.25 140.871094 126.25 140.871094 120.085938 C 140.871094 113.921875 150.117188 113.921875 150.117188 120.085938 "/>
<path style="fill:none;stroke-width:0.708661;stroke-linecap:round;stroke-linejoin:round;stroke:rgb(0%,0%,0%);stroke-opacity:1;stroke-miterlimit:10;" d="M 155.757813 108.273438 C 155.757813 114.4375 146.515625 114.4375 146.515625 108.273438 C 146.515625 102.109375 155.757813 102.109375 155.757813 108.273438 "/>
<path style="fill:none;stroke-width:0.708661;stroke-linecap:round;stroke-linejoin:round;stroke:rgb(0%,0%,0%);stroke-opacity:1;stroke-miterlimit:10;" d="M 161.398438 121.171875 C 161.398438 127.332031 152.15625 127.332031 152.15625 121.171875 C 152.15625 115.007813 161.398438 115.007813 161.398438 121.171875 "/>
<path style="fill:none;stroke-width:0.708661;stroke-linecap:round;stroke-linejoin:round;stroke:rgb(0%,0%,0%);stroke-opacity:1;stroke-miterlimit:10;" d="M 167.042969 88.890625 C 167.042969 95.054688 157.796875 95.054688 157.796875 88.890625 C 157.796875 82.726563 167.042969 82.726563 167.042969 88.890625 "/>
<path style="fill:none;stroke-width:0.708661;stroke-linecap:round;stroke-linejoin:round;stroke:rgb(0%,0%,0%);stroke-opacity:1;stroke-miterlimit:10;" d="M 172.683594 85.097656 C 172.683594 91.261719 163.4375 91.261719 163.4375 85.097656 C 163.4375 78.9375 172.683594 78.9375 172.683594 85.097656 "/>
<path style="fill:none;stroke-width:0.708661;stroke-linecap:round;stroke-linejoin:round;stroke:rgb(0%,0%,0%);stroke-opacity:1;stroke-miterlimit:10;" d="M 178.324219 75.289063 C 178.324219 81.453125 169.082031 81.453125 169.082031 75.289063 C 169.082031 69.125 178.324219 69.125 178.324219 75.289063 "/>
<path style="fill:none;stroke-width:0.708661;stroke-linecap:round;stroke-linejoin:round;stroke:rgb(0%,0%,0%);stroke-opacity:1;stroke-miterlimit:10;" d="M 183.964844 85.105469 C 183.964844 91.265625 174.722656 91.265625 174.722656 85.105469 C 174.722656 78.941406 183.964844 78.941406 183.964844 85.105469 "/>
<path style="fill:none;stroke-width:0.708661;stroke-linecap:round;stroke-linejoin:round;stroke:rgb(0%,0%,0%);stroke-opacity:1;stroke-miterlimit:10;" d="M 189.609375 85.472656 C 189.609375 91.632813 180.363281 91.632813 180.363281 85.472656 C 180.363281 79.308594 189.609375 79.308594 189.609375 85.472656 "/>
<path style="fill:none;stroke-width:1.066978;stroke-linecap:round;stroke-linejoin:round;stroke:rgb(45.098039%,45.098039%,45.098039%);stroke-opacity:1;stroke-miterlimit:10;" d="M 8.964844 207.035156 L 282.019531 207.035156 L 282.019531 5.980469 L 8.964844 5.980469 Z M 8.964844 207.035156 "/>
</g>
<path style="fill:none;stroke-width:1.066978;stroke-linecap:butt;stroke-linejoin:round;stroke:rgb(45.098039%,45.098039%,45.098039%);stroke-opacity:1;stroke-miterlimit:10;" d="M 5.976563 202.046875 L 8.964844 202.046875 "/>
<path style="fill:none;stroke-width:1.066978;stroke-linecap:butt;stroke-linejoin:round;stroke:rgb(45.098039%,45.098039%,45.098039%);stroke-opacity:1;stroke-miterlimit:10;" d="M 5.976563 160.507813 L 8.964844 160.507813 "/>
<path style="fill:none;stroke-width:1.066978;stroke-linecap:butt;stroke-linejoin:round;stroke:rgb(45.098039%,45.098039%,45.098039%);stroke-opacity:1;stroke-miterlimit:10;" d="M 5.976563 118.96875 L 8.964844 118.96875 "/>
<path style="fill:none;stroke-width:1.066978;stroke-linecap:butt;stroke-linejoin:round;stroke:rgb(45.098039%,45.098039%,45.098039%);stroke-opacity:1;stroke-miterlimit:10;" d="M 5.976563 77.425781 L 8.964844 77.425781 "/>
<path style="fill:none;stroke-width:1.066978;stroke-linecap:butt;stroke-linejoin:round;stroke:rgb(45.098039%,45.098039%,45.098039%);stroke-opacity:1;stroke-miterlimit:10;" d="M 5.976563 35.886719 L 8.964844 35.886719 "/>
<path style="fill:none;stroke-width:1.066978;stroke-linecap:butt;stroke-linejoin:round;stroke:rgb(45.098039%,45.098039%,45.098039%);stroke-opacity:1;stroke-miterlimit:10;" d="M 15.738281 210.023438 L 15.738281 207.035156 "/>
<path style="fill:none;stroke-width:1.066978;stroke-linecap:butt;stroke-linejoin:round;stroke:rgb(45.098039%,45.098039%,45.098039%);stroke-opacity:1;stroke-miterlimit:10;" d="M 72.152344 210.023438 L 72.152344 207.035156 "/>
<path style="fill:none;stroke-width:1.066978;stroke-linecap:butt;stroke-linejoin:round;stroke:rgb(45.098039%,45.098039%,45.098039%);stroke-opacity:1;stroke-miterlimit:10;" d="M 128.570313 210.023438 L 128.570313 207.035156 "/>
<path style="fill:none;stroke-width:1.066978;stroke-linecap:butt;stroke-linejoin:round;stroke:rgb(45.098039%,45.098039%,45.098039%);stroke-opacity:1;stroke-miterlimit:10;" d="M 184.984375 210.023438 L 184.984375 207.035156 "/>
<path style="fill:none;stroke-width:1.066978;stroke-linecap:butt;stroke-linejoin:round;stroke:rgb(45.098039%,45.098039%,45.098039%);stroke-opacity:1;stroke-miterlimit:10;" d="M 241.402344 210.023438 L 241.402344 207.035156 "/>
<g clip-path="url(#clip3)" clip-rule="nonzero">
<path style="fill-rule:nonzero;fill:rgb(100%,100%,100%);fill-opacity:1;stroke-width:1.066978;stroke-linecap:round;stroke-linejoin:round;stroke:rgb(100%,100%,100%);stroke-opacity:1;stroke-miterlimit:10;" d="M 288 216 L 576 216 L 576 0 L 288 0 Z M 288 216 "/>
</g>
<g clip-path="url(#clip4)" clip-rule="nonzero">
<path style=" stroke:none;fill-rule:nonzero;fill:rgb(100%,100%,100%);fill-opacity:1;" d="M 296.964844 207.035156 L 570.019531 207.035156 L 570.019531 5.980469 L 296.964844 5.980469 Z M 296.964844 207.035156 "/>
<path style="fill:none;stroke-width:1.066978;stroke-linecap:butt;stroke-linejoin:round;stroke:rgb(0%,0%,0%);stroke-opacity:0.6;stroke-dasharray:4.267913,4.267913;stroke-miterlimit:1;" d="M 309.378906 15.117188 L 311.859375 16.945313 L 314.34375 18.773438 L 316.824219 20.601563 L 319.308594 22.425781 L 321.789063 24.253906 L 324.273438 26.082031 L 326.753906 27.910156 L 329.238281 29.738281 L 331.71875 31.566406 L 334.203125 33.394531 L 339.164063 37.050781 L 341.648438 38.878906 L 344.128906 40.707031 L 346.613281 42.535156 L 349.09375 44.359375 L 351.578125 46.1875 L 354.058594 48.015625 L 356.542969 49.84375 L 359.023438 51.671875 L 361.507813 53.5 L 363.988281 55.328125 L 366.472656 57.15625 L 368.953125 58.984375 L 371.4375 60.8125 L 373.917969 62.640625 L 376.402344 64.464844 L 378.882813 66.292969 L 381.367188 68.121094 L 383.847656 69.949219 L 386.332031 71.777344 L 391.292969 75.433594 L 393.777344 77.261719 L 396.257813 79.089844 L 398.742188 80.917969 L 401.222656 82.746094 L 403.707031 84.570313 L 406.1875 86.398438 L 408.671875 88.226563 L 411.152344 90.054688 L 413.636719 91.882813 L 416.117188 93.710938 L 418.601563 95.539063 L 421.082031 97.367188 L 423.566406 99.195313 L 426.046875 101.023438 L 428.53125 102.851563 L 431.011719 104.679688 L 433.496094 106.503906 L 435.976563 108.332031 L 438.460938 110.160156 L 443.421875 113.816406 L 445.90625 115.644531 L 448.386719 117.472656 L 450.871094 119.300781 L 453.351563 121.128906 L 455.835938 122.957031 L 458.316406 124.785156 L 460.800781 126.609375 L 463.28125 128.4375 L 465.765625 130.265625 L 468.246094 132.09375 L 470.730469 133.921875 L 473.210938 135.75 L 475.695313 137.578125 L 478.175781 139.40625 L 480.660156 141.234375 L 483.140625 143.0625 L 485.625 144.890625 L 488.105469 146.71875 L 490.589844 148.542969 L 495.550781 152.199219 L 498.035156 154.027344 L 500.515625 155.855469 L 503 157.683594 L 505.480469 159.511719 L 507.964844 161.339844 L 510.445313 163.167969 L 512.929688 164.996094 L 515.410156 166.824219 L 517.894531 168.648438 L 520.375 170.476563 L 522.859375 172.304688 L 525.339844 174.132813 L 527.824219 175.960938 L 530.304688 177.789063 L 532.789063 179.617188 L 535.269531 181.445313 L 537.753906 183.273438 L 540.234375 185.101563 L 542.71875 186.929688 L 545.199219 188.753906 L 547.679688 190.582031 L 550.164063 192.410156 L 552.644531 194.238281 L 555.128906 196.066406 L 557.609375 197.894531 "/>
<path style="fill:none;stroke-width:1.066978;stroke-linecap:butt;stroke-linejoin:round;stroke:rgb(0%,0%,0%);stroke-opacity:0.6;stroke-miterlimit:1;" d="M 309.378906 15.601563 L 311.859375 16.929688 L 314.34375 18.277344 L 316.824219 19.652344 L 319.308594 21.046875 L 321.789063 22.464844 L 324.273438 23.902344 L 326.753906 25.359375 L 329.238281 26.835938 L 331.71875 28.332031 L 334.203125 29.839844 L 336.683594 31.367188 L 339.164063 32.902344 L 341.648438 34.457031 L 344.128906 36.019531 L 346.613281 37.589844 L 349.09375 39.171875 L 351.578125 40.757813 L 354.058594 42.351563 L 356.542969 43.945313 L 359.023438 45.546875 L 361.507813 47.144531 L 363.988281 48.742188 L 366.472656 50.339844 L 368.953125 51.929688 L 371.4375 53.515625 L 373.917969 55.097656 L 376.402344 56.667969 L 378.882813 58.230469 L 381.367188 59.78125 L 383.847656 61.316406 L 386.332031 62.839844 L 388.8125 64.347656 L 391.292969 65.839844 L 393.777344 67.316406 L 396.257813 68.773438 L 398.742188 70.207031 L 401.222656 71.625 L 403.707031 73.015625 L 406.1875 74.390625 L 408.671875 75.738281 L 411.152344 77.0625 L 413.636719 78.363281 L 416.117188 79.636719 L 418.601563 80.886719 L 421.082031 82.109375 L 423.566406 83.308594 L 426.046875 84.476563 L 428.53125 85.621094 L 431.011719 86.738281 L 433.496094 87.828125 L 435.976563 88.894531 L 438.460938 89.929688 L 440.941406 90.9375 L 443.421875 91.921875 L 445.90625 92.875 L 448.386719 93.804688 L 450.871094 94.707031 L 453.351563 95.582031 L 455.835938 96.433594 L 458.316406 97.257813 L 460.800781 98.058594 L 463.28125 98.835938 L 465.765625 99.585938 L 468.246094 100.3125 L 470.730469 101.015625 L 473.210938 101.699219 L 475.695313 102.355469 L 478.175781 102.992188 L 480.660156 103.609375 L 483.140625 104.203125 L 485.625 104.773438 L 488.105469 105.328125 L 490.589844 105.863281 L 493.070313 106.378906 L 495.550781 106.875 L 498.035156 107.355469 L 500.515625 107.816406 L 503 108.261719 L 505.480469 108.6875 L 507.964844 109.101563 L 510.445313 109.5 L 512.929688 109.878906 L 515.410156 110.25 L 517.894531 110.601563 L 520.375 110.941406 L 522.859375 111.269531 L 525.339844 111.582031 L 527.824219 111.886719 L 530.304688 112.175781 L 532.789063 112.457031 L 535.269531 112.722656 L 537.753906 112.980469 L 540.234375 113.230469 L 542.71875 113.46875 L 545.199219 113.695313 L 547.679688 113.914063 L 550.164063 114.125 L 552.644531 114.328125 L 555.128906 114.519531 L 557.609375 114.707031 "/>
<path style="fill:none;stroke-width:0.708661;stroke-linecap:round;stroke-linejoin:round;stroke:rgb(0%,0%,0%);stroke-opacity:1;stroke-miterlimit:10;" d="M 314 -2.847656 C 314 3.316406 304.753906 3.316406 304.753906 -2.847656 C 304.753906 -9.011719 314 -9.011719 314 -2.847656 "/>
<path style="fill:none;stroke-width:0.708661;stroke-linecap:round;stroke-linejoin:round;stroke:rgb(0%,0%,0%);stroke-opacity:1;stroke-miterlimit:10;" d="M 319.640625 29.269531 C 319.640625 35.433594 310.398438 35.433594 310.398438 29.269531 C 310.398438 23.105469 319.640625 23.105469 319.640625 29.269531 "/>
<path style="fill:none;stroke-width:0.708661;stroke-linecap:round;stroke-linejoin:round;stroke:rgb(0%,0%,0%);stroke-opacity:1;stroke-miterlimit:10;" d="M 325.285156 44.160156 C 325.285156 50.324219 316.039063 50.324219 316.039063 44.160156 C 316.039063 37.996094 325.285156 37.996094 325.285156 44.160156 "/>
<path style="fill:none;stroke-width:0.708661;stroke-linecap:round;stroke-linejoin:round;stroke:rgb(0%,0%,0%);stroke-opacity:1;stroke-miterlimit:10;" d="M 330.925781 23.160156 C 330.925781 29.324219 321.679688 29.324219 321.679688 23.160156 C 321.679688 17 330.925781 17 330.925781 23.160156 "/>
<path style="fill:none;stroke-width:0.708661;stroke-linecap:round;stroke-linejoin:round;stroke:rgb(0%,0%,0%);stroke-opacity:1;stroke-miterlimit:10;" d="M 336.566406 41.890625 C 336.566406 48.050781 327.324219 48.050781 327.324219 41.890625 C 327.324219 35.726563 336.566406 35.726563 336.566406 41.890625 "/>
<path style="fill:none;stroke-width:0.708661;stroke-linecap:round;stroke-linejoin:round;stroke:rgb(0%,0%,0%);stroke-opacity:1;stroke-miterlimit:10;" d="M 342.207031 14.757813 C 342.207031 20.917969 332.964844 20.917969 332.964844 14.757813 C 332.964844 8.59375 342.207031 8.59375 342.207031 14.757813 "/>
<path style="fill:none;stroke-width:0.708661;stroke-linecap:round;stroke-linejoin:round;stroke:rgb(0%,0%,0%);stroke-opacity:1;stroke-miterlimit:10;" d="M 347.851563 55.855469 C 347.851563 62.019531 338.605469 62.019531 338.605469 55.855469 C 338.605469 49.691406 347.851563 49.691406 347.851563 55.855469 "/>
<path style="fill:none;stroke-width:0.708661;stroke-linecap:round;stroke-linejoin:round;stroke:rgb(0%,0%,0%);stroke-opacity:1;stroke-miterlimit:10;" d="M 353.492188 30.660156 C 353.492188 36.824219 344.246094 36.824219 344.246094 30.660156 C 344.246094 24.5 353.492188 24.5 353.492188 30.660156 "/>
<path style="fill:none;stroke-width:0.708661;stroke-linecap:round;stroke-linejoin:round;stroke:rgb(0%,0%,0%);stroke-opacity:1;stroke-miterlimit:10;" d="M 359.132813 53.839844 C 359.132813 60 349.890625 60 349.890625 53.839844 C 349.890625 47.675781 359.132813 47.675781 359.132813 53.839844 "/>
<path style="fill:none;stroke-width:0.708661;stroke-linecap:round;stroke-linejoin:round;stroke:rgb(0%,0%,0%);stroke-opacity:1;stroke-miterlimit:10;" d="M 364.773438 46.9375 C 364.773438 53.097656 355.53125 53.097656 355.53125 46.9375 C 355.53125 40.773438 364.773438 40.773438 364.773438 46.9375 "/>
<path style="fill:none;stroke-width:0.708661;stroke-linecap:round;stroke-linejoin:round;stroke:rgb(0%,0%,0%);stroke-opacity:1;stroke-miterlimit:10;" d="M 370.417969 59.066406 C 370.417969 65.230469 361.171875 65.230469 361.171875 59.066406 C 361.171875 52.902344 370.417969 52.902344 370.417969 59.066406 "/>
<path style="fill:none;stroke-width:0.708661;stroke-linecap:round;stroke-linejoin:round;stroke:rgb(0%,0%,0%);stroke-opacity:1;stroke-miterlimit:10;" d="M 376.058594 45.253906 C 376.058594 51.417969 366.8125 51.417969 366.8125 45.253906 C 366.8125 39.09375 376.058594 39.09375 376.058594 45.253906 "/>
<path style="fill:none;stroke-width:0.708661;stroke-linecap:round;stroke-linejoin:round;stroke:rgb(0%,0%,0%);stroke-opacity:1;stroke-miterlimit:10;" d="M 381.699219 43.039063 C 381.699219 49.203125 372.457031 49.203125 372.457031 43.039063 C 372.457031 36.878906 381.699219 36.878906 381.699219 43.039063 "/>
<path style="fill:none;stroke-width:0.708661;stroke-linecap:round;stroke-linejoin:round;stroke:rgb(0%,0%,0%);stroke-opacity:1;stroke-miterlimit:10;" d="M 387.339844 45.734375 C 387.339844 51.894531 378.097656 51.894531 378.097656 45.734375 C 378.097656 39.570313 387.339844 39.570313 387.339844 45.734375 "/>
<path style="fill:none;stroke-width:0.708661;stroke-linecap:round;stroke-linejoin:round;stroke:rgb(0%,0%,0%);stroke-opacity:1;stroke-miterlimit:10;" d="M 392.984375 97.675781 C 392.984375 103.839844 383.738281 103.839844 383.738281 97.675781 C 383.738281 91.511719 392.984375 91.511719 392.984375 97.675781 "/>
<path style="fill:none;stroke-width:0.708661;stroke-linecap:round;stroke-linejoin:round;stroke:rgb(0%,0%,0%);stroke-opacity:1;stroke-miterlimit:10;" d="M 398.625 82.535156 C 398.625 88.699219 389.378906 88.699219 389.378906 82.535156 C 389.378906 76.375 398.625 76.375 398.625 82.535156 "/>
<path style="fill:none;stroke-width:0.708661;stroke-linecap:round;stroke-linejoin:round;stroke:rgb(0%,0%,0%);stroke-opacity:1;stroke-miterlimit:10;" d="M 404.265625 105.792969 C 404.265625 111.953125 395.023438 111.953125 395.023438 105.792969 C 395.023438 99.628906 404.265625 99.628906 404.265625 105.792969 "/>
<path style="fill:none;stroke-width:0.708661;stroke-linecap:round;stroke-linejoin:round;stroke:rgb(0%,0%,0%);stroke-opacity:1;stroke-miterlimit:10;" d="M 409.910156 110.5 C 409.910156 116.664063 400.664063 116.664063 400.664063 110.5 C 400.664063 104.335938 409.910156 104.335938 409.910156 110.5 "/>
<path style="fill:none;stroke-width:0.708661;stroke-linecap:round;stroke-linejoin:round;stroke:rgb(0%,0%,0%);stroke-opacity:1;stroke-miterlimit:10;" d="M 415.550781 93.59375 C 415.550781 99.757813 406.304688 99.757813 406.304688 93.59375 C 406.304688 87.433594 415.550781 87.433594 415.550781 93.59375 "/>
<path style="fill:none;stroke-width:0.708661;stroke-linecap:round;stroke-linejoin:round;stroke:rgb(0%,0%,0%);stroke-opacity:1;stroke-miterlimit:10;" d="M 421.191406 114.527344 C 421.191406 120.6875 411.945313 120.6875 411.945313 114.527344 C 411.945313 108.363281 421.191406 108.363281 421.191406 114.527344 "/>
<path style="fill:none;stroke-width:0.708661;stroke-linecap:round;stroke-linejoin:round;stroke:rgb(0%,0%,0%);stroke-opacity:1;stroke-miterlimit:10;" d="M 426.832031 86.992188 C 426.832031 93.15625 417.589844 93.15625 417.589844 86.992188 C 417.589844 80.828125 426.832031 80.828125 426.832031 86.992188 "/>
<path style="fill:none;stroke-width:0.708661;stroke-linecap:round;stroke-linejoin:round;stroke:rgb(0%,0%,0%);stroke-opacity:1;stroke-miterlimit:10;" d="M 432.476563 88.972656 C 432.476563 95.136719 423.230469 95.136719 423.230469 88.972656 C 423.230469 82.8125 432.476563 82.8125 432.476563 88.972656 "/>
<path style="fill:none;stroke-width:0.708661;stroke-linecap:round;stroke-linejoin:round;stroke:rgb(0%,0%,0%);stroke-opacity:1;stroke-miterlimit:10;" d="M 438.117188 92.925781 C 438.117188 99.085938 428.871094 99.085938 428.871094 92.925781 C 428.871094 86.761719 438.117188 86.761719 438.117188 92.925781 "/>
<path style="fill:none;stroke-width:0.708661;stroke-linecap:round;stroke-linejoin:round;stroke:rgb(0%,0%,0%);stroke-opacity:1;stroke-miterlimit:10;" d="M 443.757813 104.738281 C 443.757813 110.902344 434.515625 110.902344 434.515625 104.738281 C 434.515625 98.574219 443.757813 98.574219 443.757813 104.738281 "/>
<path style="fill:none;stroke-width:0.708661;stroke-linecap:round;stroke-linejoin:round;stroke:rgb(0%,0%,0%);stroke-opacity:1;stroke-miterlimit:10;" d="M 449.398438 91.839844 C 449.398438 98.003906 440.15625 98.003906 440.15625 91.839844 C 440.15625 85.679688 449.398438 85.679688 449.398438 91.839844 "/>
<path style="fill:none;stroke-width:0.708661;stroke-linecap:round;stroke-linejoin:round;stroke:rgb(0%,0%,0%);stroke-opacity:1;stroke-miterlimit:10;" d="M 455.042969 124.121094 C 455.042969 130.285156 445.796875 130.285156 445.796875 124.121094 C 445.796875 117.957031 455.042969 117.957031 455.042969 124.121094 "/>
<path style="fill:none;stroke-width:0.708661;stroke-linecap:round;stroke-linejoin:round;stroke:rgb(0%,0%,0%);stroke-opacity:1;stroke-miterlimit:10;" d="M 460.683594 127.910156 C 460.683594 134.074219 451.4375 134.074219 451.4375 127.910156 C 451.4375 121.75 460.683594 121.75 460.683594 127.910156 "/>
<path style="fill:none;stroke-width:0.708661;stroke-linecap:round;stroke-linejoin:round;stroke:rgb(0%,0%,0%);stroke-opacity:1;stroke-miterlimit:10;" d="M 466.324219 137.722656 C 466.324219 143.882813 457.082031 143.882813 457.082031 137.722656 C 457.082031 131.558594 466.324219 131.558594 466.324219 137.722656 "/>
<path style="fill:none;stroke-width:0.708661;stroke-linecap:round;stroke-linejoin:round;stroke:rgb(0%,0%,0%);stroke-opacity:1;stroke-miterlimit:10;" d="M 471.964844 127.90625 C 471.964844 134.070313 462.722656 134.070313 462.722656 127.90625 C 462.722656 121.742188 471.964844 121.742188 471.964844 127.90625 "/>
<path style="fill:none;stroke-width:0.708661;stroke-linecap:round;stroke-linejoin:round;stroke:rgb(0%,0%,0%);stroke-opacity:1;stroke-miterlimit:10;" d="M 477.609375 127.539063 C 477.609375 133.703125 468.363281 133.703125 468.363281 127.539063 C 468.363281 121.378906 477.609375 121.378906 477.609375 127.539063 "/>
<path style="fill:none;stroke-width:1.066978;stroke-linecap:round;stroke-linejoin:round;stroke:rgb(45.098039%,45.098039%,45.098039%);stroke-opacity:1;stroke-miterlimit:10;" d="M 296.964844 207.035156 L 570.019531 207.035156 L 570.019531 5.980469 L 296.964844 5.980469 Z M 296.964844 207.035156 "/>
</g>
<path style="fill:none;stroke-width:1.066978;stroke-linecap:butt;stroke-linejoin:round;stroke:rgb(45.098039%,45.098039%,45.098039%);stroke-opacity:1;stroke-miterlimit:10;" d="M 293.976563 177.125 L 296.964844 177.125 "/>
<path style="fill:none;stroke-width:1.066978;stroke-linecap:butt;stroke-linejoin:round;stroke:rgb(45.098039%,45.098039%,45.098039%);stroke-opacity:1;stroke-miterlimit:10;" d="M 293.976563 135.582031 L 296.964844 135.582031 "/>
<path style="fill:none;stroke-width:1.066978;stroke-linecap:butt;stroke-linejoin:round;stroke:rgb(45.098039%,45.098039%,45.098039%);stroke-opacity:1;stroke-miterlimit:10;" d="M 293.976563 94.042969 L 296.964844 94.042969 "/>
<path style="fill:none;stroke-width:1.066978;stroke-linecap:butt;stroke-linejoin:round;stroke:rgb(45.098039%,45.098039%,45.098039%);stroke-opacity:1;stroke-miterlimit:10;" d="M 293.976563 52.503906 L 296.964844 52.503906 "/>
<path style="fill:none;stroke-width:1.066978;stroke-linecap:butt;stroke-linejoin:round;stroke:rgb(45.098039%,45.098039%,45.098039%);stroke-opacity:1;stroke-miterlimit:10;" d="M 293.976563 10.960938 L 296.964844 10.960938 "/>
<path style="fill:none;stroke-width:1.066978;stroke-linecap:butt;stroke-linejoin:round;stroke:rgb(45.098039%,45.098039%,45.098039%);stroke-opacity:1;stroke-miterlimit:10;" d="M 303.738281 210.023438 L 303.738281 207.035156 "/>
<path style="fill:none;stroke-width:1.066978;stroke-linecap:butt;stroke-linejoin:round;stroke:rgb(45.098039%,45.098039%,45.098039%);stroke-opacity:1;stroke-miterlimit:10;" d="M 360.152344 210.023438 L 360.152344 207.035156 "/>
<path style="fill:none;stroke-width:1.066978;stroke-linecap:butt;stroke-linejoin:round;stroke:rgb(45.098039%,45.098039%,45.098039%);stroke-opacity:1;stroke-miterlimit:10;" d="M 416.570313 210.023438 L 416.570313 207.035156 "/>
<path style="fill:none;stroke-width:1.066978;stroke-linecap:butt;stroke-linejoin:round;stroke:rgb(45.098039%,45.098039%,45.098039%);stroke-opacity:1;stroke-miterlimit:10;" d="M 472.984375 210.023438 L 472.984375 207.035156 "/>
<path style="fill:none;stroke-width:1.066978;stroke-linecap:butt;stroke-linejoin:round;stroke:rgb(45.098039%,45.098039%,45.098039%);stroke-opacity:1;stroke-miterlimit:10;" d="M 529.402344 210.023438 L 529.402344 207.035156 "/>
</g>
</svg>
